<svg width="48" height="48" viewBox="0 0 48 48" fill="none" xmlns="http://www.w3.org/2000/svg">
<path d="M26.818 3.18198C28.5754 1.42462 31.4246 1.42462 33.182 3.18198L44.818 14.818C46.5754 16.5754 46.5754 19.4246 44.818 21.182L33.182 32.818C31.4246 34.5754 28.5754 34.5754 26.818 32.818L15.182 21.182C13.4246 19.4246 13.4246 16.5754 15.182 14.818L26.818 3.18198Z" fill="url(#paint0_linear_74_1573)"/>
<path fill-rule="evenodd" clip-rule="evenodd" d="M17.0572 33.0572C17.5779 32.5365 18.4221 32.5365 18.9428 33.0572L27.6095 41.7238C28.1302 42.2445 28.1302 43.0888 27.6095 43.6095C27.0888 44.1302 26.2446 44.1302 25.7239 43.6095L17.0572 34.9428C16.5365 34.4221 16.5365 33.5779 17.0572 33.0572Z" fill="#FFF8E5"/>
<path d="M13.3333 20C8.17868 20 4 24.1787 4 29.3333C4 34.488 8.17868 38.6667 13.3333 38.6667C18.488 38.6667 22.6667 34.488 22.6667 29.3333C22.6667 24.1787 18.488 20 13.3333 20Z" fill="#FEC432"/>
<defs>
<linearGradient id="paint0_linear_74_1573" x1="30" y1="0" x2="30" y2="36" gradientUnits="userSpaceOnUse">
<stop stop-color="white" stop-opacity="0.12"/>
<stop offset="1" stop-color="white" stop-opacity="0"/>
</linearGradient>
</defs>
</svg>
