<svg width="48" height="48" viewBox="0 0 48 48" fill="none" xmlns="http://www.w3.org/2000/svg">
<path d="M26.818 3.18198C28.5754 1.42462 31.4246 1.42462 33.182 3.18198L44.818 14.818C46.5754 16.5754 46.5754 19.4246 44.818 21.182L33.182 32.818C31.4246 34.5754 28.5754 34.5754 26.818 32.818L15.182 21.182C13.4246 19.4246 13.4246 16.5754 15.182 14.818L26.818 3.18198Z" fill="url(#paint0_linear_74_1587)"/>
<path d="M20.7575 20C20.421 20 20.0933 19.9999 19.8157 20.0226C19.511 20.0475 19.1513 20.1063 18.7894 20.2907C18.2876 20.5463 17.8797 20.9543 17.624 21.456C17.4396 21.8179 17.3809 22.1776 17.356 22.4824C17.3333 22.7599 17.3333 23.0876 17.3334 23.4241L17.3334 40.5759C17.3333 40.9124 17.3333 41.2401 17.356 41.5176C17.3809 41.8224 17.4396 42.1821 17.624 42.544C17.8797 43.0457 18.2876 43.4537 18.7894 43.7094C19.1513 43.8938 19.5109 43.9525 19.8157 43.9774C20.0932 44.0001 20.4209 44.0001 20.7573 44H24.5759C24.9124 44.0001 25.2402 44.0001 25.5177 43.9774C25.8225 43.9525 26.1821 43.8938 26.544 43.7094C27.0458 43.4537 27.4537 43.0457 27.7094 42.544C27.8938 42.1821 27.9526 41.8224 27.9775 41.5176C28.0001 41.2401 28.0001 40.9124 28.0001 40.5759V23.4241C28.0001 23.0876 28.0001 22.7599 27.9775 22.4824C27.9526 22.1776 27.8938 21.8179 27.7094 21.456C27.4537 20.9543 27.0458 20.5463 26.544 20.2907C26.1821 20.1063 25.8225 20.0475 25.5177 20.0226C25.2401 19.9999 24.9124 20 24.5759 20L20.7575 20Z" fill="#FFF8E5"/>
<path d="M7.42414 20C7.08764 20 6.75991 19.9999 6.48237 20.0226C6.17758 20.0475 5.81793 20.1063 5.45603 20.2907C4.95427 20.5463 4.54632 20.9543 4.29066 21.456C4.10626 21.8179 4.0475 22.1776 4.0226 22.4824C3.99992 22.7599 3.99996 23.0876 4 23.4241L4 40.5759C3.99996 40.9124 3.99992 41.2401 4.0226 41.5176C4.0475 41.8224 4.10626 42.1821 4.29066 42.544C4.54632 43.0457 4.95427 43.4537 5.45603 43.7094C5.81793 43.8938 6.17758 43.9525 6.48237 43.9774C6.75986 44.0001 7.08751 44.0001 7.42396 44H11.2426C11.579 44.0001 11.9068 44.0001 12.1843 43.9774C12.4891 43.9525 12.8487 43.8938 13.2106 43.7094C13.7124 43.4537 14.1204 43.0457 14.376 42.544C14.5604 42.1821 14.6192 41.8224 14.6441 41.5176C14.6668 41.2401 14.6667 40.9124 14.6667 40.5759V23.4241C14.6667 23.0876 14.6668 22.7599 14.6441 22.4824C14.6192 22.1776 14.5604 21.8179 14.376 21.456C14.1204 20.9543 13.7124 20.5463 13.2106 20.2907C12.8487 20.1063 12.4891 20.0475 12.1843 20.0226C11.9068 19.9999 11.5791 20 11.2426 20L7.42414 20Z" fill="#FEC432"/>
<defs>
<linearGradient id="paint0_linear_74_1587" x1="30" y1="0" x2="30" y2="36" gradientUnits="userSpaceOnUse">
<stop stop-color="white" stop-opacity="0.12"/>
<stop offset="1" stop-color="white" stop-opacity="0"/>
</linearGradient>
</defs>
</svg>
